<svg xmlns="http://www.w3.org/2000/svg" viewBox="0 0 64 64"><rect width="64" height="64" rx="13" fill="#06050d"/><g transform="translate(9.00 11.21) scale(0.06506)"><path d="M 589 85.031 C 539.348 89.717, 479.793 100.017, 424.634 113.456 C 397.887 119.973, 397.745 119.996, 392.319 118.579 C 387.325 117.275, 386.523 117.312, 382.709 119.019 C 378.539 120.886, 376.269 120.791, 379.029 118.865 C 381.525 117.123, 373.080 118.715, 364.400 121.621 C 354.802 124.835, 334.148 135.257, 331.792 138.074 C 330.646 139.446, 319.968 143.517, 299.292 150.466 C 261.455 163.183, 224.297 176.973, 204 185.831 C 201.525 186.911, 193.425 190.357, 186 193.488 C 169.057 200.633, 152.398 208.926, 145.673 213.562 C 136.671 219.767, 130.519 224.916, 130.510 226.253 C 130.504 226.964, 128.588 229.276, 126.250 231.390 C 121.097 236.050, 120.936 237.047, 125.456 236.313 C 129.978 235.580, 132.631 236.535, 131.121 238.354 C 129.809 239.935, 130.632 241, 133.167 241 C 134.175 241, 135 241.709, 135 242.575 C 135 243.671, 135.837 244.096, 137.750 243.969 C 142.861 243.632, 143.314 243.923, 140.861 245.967 C 139.523 247.081, 139.067 247.948, 139.809 247.967 C 140.529 247.985, 140.835 248.457, 140.490 249.016 C 140.144 249.575, 139.432 249.767, 138.906 249.442 C 138.381 249.117, 138.074 249.321, 138.225 249.894 C 138.376 250.468, 136.944 252.283, 135.042 253.927 C 133.139 255.571, 131.808 257.142, 132.084 257.417 C 132.843 258.176, 143.388 255.223, 151.679 251.929 C 155.734 250.318, 160.149 249, 161.490 249 C 162.831 249, 176.798 243.808, 192.528 237.463 C 244.042 216.682, 290.887 199.687, 289.317 202.348 C 285.657 208.557, 275.031 223.806, 272.615 226.318 C 269.303 229.762, 244.951 264.791, 226.177 293.118 C 218.421 304.820, 213.493 311.283, 211.500 312.367 C 196.373 320.594, 195.192 321.116, 196.500 319 C 197.547 317.306, 195.597 317.849, 185.366 322.097 C 167.610 329.471, 136.813 344.941, 137.264 346.260 C 137.533 347.045, 124.254 354.306, 101.094 366.040 C 80.967 376.238, 60.675 386.766, 56 389.437 C 32.231 403.015, 1.237 426.172, 4.831 427.667 C 5.799 428.070, 5.394 429.023, 3.349 431.158 C 1.043 433.564, 0.796 434.256, 1.978 434.986 C 3.201 435.742, 3.136 436.193, 1.550 437.945 C -0.626 440.350, 0.004 441.603, 2.672 440.176 C 4.052 439.437, 5.107 439.668, 6.871 441.097 C 9.127 442.923, 9.157 443.112, 7.572 445.530 C 5.531 448.645, 6.253 450, 9.952 450 C 11.549 450, 13.037 450.655, 13.362 451.500 C 14.180 453.631, 17.592 453.326, 24.449 450.507 C 27.721 449.162, 31.327 448.295, 32.463 448.580 C 33.599 448.865, 37.122 447.951, 40.293 446.549 C 47.713 443.267, 50.023 443.216, 46.306 446.415 C 44.763 447.743, 43.737 449.068, 44.028 449.359 C 44.947 450.282, 63 441.833, 63 440.479 C 63 437.634, 158.690 393.357, 160.635 395.302 C 160.842 395.509, 158.476 399.688, 155.378 404.589 C 152.280 409.490, 146.486 418.675, 142.502 425 C 138.518 431.325, 132.289 442.225, 128.660 449.221 C 125.031 456.218, 120.991 463.643, 119.683 465.721 C 117.286 469.529, 103.392 493.648, 98.784 502 C 97.418 504.475, 93.387 511.450, 89.826 517.500 C 83.067 528.984, 70.654 551.009, 64.871 561.778 L 61.500 568.056 46.573 575.778 C 38.265 580.076, 30.106 585.052, 28.173 587 C 26.263 588.925, 22.438 591.862, 19.674 593.527 C 13.373 597.322, 12.536 599.112, 17.434 598.317 C 19.761 597.939, 21 598.131, 21 598.869 C 21 599.491, 20.645 600, 20.212 600 C 19.778 600, 17.700 602.062, 15.594 604.582 C 10.981 610.100, 11.671 611.419, 19.298 611.659 C 27.817 611.928, 27.401 611.812, 25.980 613.524 C 24.492 615.317, 24.584 615.432, 28.500 616.690 C 31.982 617.809, 33.112 622.567, 30.788 626.321 C 27.943 630.914, 31.197 635.942, 34.866 632.621 C 35.851 631.730, 37.747 630.998, 39.079 630.996 C 40.410 630.994, 42.973 630.094, 44.774 628.996 C 48.477 626.739, 49 626.609, 49 627.948 C 49 628.470, 50.129 630.115, 51.509 631.604 C 54.077 634.375, 55.598 634.343, 62.686 631.373 C 63.453 631.051, 63.983 632.222, 64.186 634.688 C 64.698 640.898, 67.627 639.833, 72.686 631.597 C 76.304 625.707, 77.740 624.301, 82.463 622.018 C 88.073 619.306, 88.868 619.509, 86.919 623.151 C 84.929 626.871, 87.001 626.416, 91.309 622.188 C 96.174 617.413, 97.342 616.971, 96.039 620.397 C 95.422 622.020, 95.522 623.332, 96.349 624.463 C 97.916 626.606, 99.408 625.089, 104.181 616.500 C 107.398 610.711, 107.868 610.329, 117.508 605.640 C 129.492 599.812, 188.577 573.580, 208 565.464 C 211.575 563.970, 219.900 560.413, 226.500 557.559 C 233.100 554.706, 241.095 551.332, 244.267 550.062 C 250.299 547.648, 252.603 545.879, 248.751 546.619 C 246.681 547.018, 246.701 546.954, 249 545.824 C 263.852 538.528, 305.104 521.511, 339.134 508.643 C 347.182 505.600, 365.102 498.542, 378.955 492.959 C 392.808 487.376, 404.352 483.019, 404.610 483.277 C 405.269 483.936, 381.390 495.343, 363.307 503.007 C 354.951 506.549, 348.263 509.596, 348.446 509.779 C 349.362 510.695, 427.212 479.098, 464.500 462.676 C 574.474 414.241, 641.790 375.546, 671.710 343.567 C 694.155 319.577, 700.993 303.295, 696.096 285.500 C 686.693 251.329, 653.784 237.622, 589.226 240.988 C 556.910 242.673, 528.060 246.260, 480.750 254.473 C 479.238 254.735, 478 254.746, 478 254.496 C 478 253.945, 506.719 240, 507.854 240 C 508.750 240, 520.653 233.600, 547.500 218.683 C 615.591 180.850, 652.287 151.592, 659.227 129.604 C 664.741 112.134, 650.829 92.097, 629.288 86.487 C 622.033 84.597, 601.468 83.854, 589 85.031 M 562 133.123 C 529.876 137.452, 466.290 150.352, 429 160.104 C 413.801 164.079, 381.035 173.601, 380.501 174.197 C 380.352 174.364, 372.676 186.200, 363.442 200.500 C 354.209 214.800, 341.918 233.475, 336.129 242 C 330.340 250.525, 324.563 259.033, 323.291 260.906 C 322.019 262.779, 321.156 264.489, 321.374 264.707 C 321.920 265.253, 334.545 259.538, 376.500 239.751 C 434.370 212.458, 486.466 186.001, 532.500 160.526 C 539.650 156.569, 548.650 151.600, 552.500 149.483 C 556.350 147.367, 563.721 142.567, 568.881 138.817 L 578.262 132 573.381 132.123 C 570.696 132.191, 565.575 132.641, 562 133.123 M 585 280.973 C 562.258 283.307, 551.600 284.706, 555.309 284.874 C 559.788 285.075, 557.358 287, 552.625 287 C 550.283 287, 545.922 287.442, 542.934 287.981 C 539.945 288.521, 531.484 289.369, 524.130 289.866 C 515.810 290.428, 510.484 291.216, 510.029 291.954 C 509.626 292.606, 500.342 294.647, 489.398 296.490 C 478.454 298.333, 468.298 300.302, 466.829 300.866 C 465.360 301.429, 455.910 303.722, 445.829 305.961 C 400.830 315.956, 357.627 328.883, 281 355.283 L 256.500 363.723 251.252 371.612 C 248.365 375.950, 246.200 380.029, 246.442 380.675 C 246.683 381.322, 244.006 386.272, 240.492 391.675 C 236.979 397.079, 231.721 405.325, 228.808 410 C 225.894 414.675, 220.329 423.225, 216.440 429 C 212.551 434.775, 203.131 449.850, 195.506 462.500 C 174.561 497.252, 164.899 513, 164.525 513 C 164.339 513, 164.421 511.988, 164.708 510.750 C 165.217 508.549, 165.197 508.543, 163.795 510.500 C 160.654 514.884, 156.041 524, 156.964 524 C 158.925 524, 200.173 505.681, 210.587 500.185 C 233.414 488.138, 261.853 475.632, 312.500 455.369 C 332.300 447.447, 350.975 439.869, 354 438.528 C 357.025 437.187, 375.250 429.360, 394.500 421.134 C 466.325 390.441, 507.202 370.721, 558.500 342.018 C 603.526 316.825, 633 294.731, 633 286.174 C 633 279.425, 616.997 277.691, 585 280.973 M 128.755 493.656 C 127.441 495.770, 124.060 501.550, 121.241 506.500 C 118.423 511.450, 111.382 523.354, 105.595 532.953 C 99.808 542.552, 95.247 550.581, 95.461 550.794 C 97.329 552.663, 104 545.282, 104 541.347 C 104 540.501, 104.820 538.614, 105.821 537.154 C 106.823 535.694, 111.160 528.200, 115.458 520.500 C 119.757 512.800, 125.292 502.992, 127.758 498.705 C 132.310 490.794, 133.136 486.606, 128.755 493.656 M 131.443 517.750 C 120.850 533.400, 115.775 542, 117.133 542 C 118.309 542, 124 536.230, 124 535.038 C 124 534.625, 126.166 530.510, 128.812 525.893 C 133.735 517.308, 135.305 514, 134.459 514 C 134.196 514, 132.839 515.688, 131.443 517.750" fill="#fff" fill-rule="evenodd"/></g></svg>
